# xmcd CD database file
#
# Track frame offsets:
#	150
#	12450
#	23961
#	34713
#	48073
#	61931
#	84829
#	93976
#	103699
#	118398
#	132482
#	145398
#	152282
#	164900
#	178023
#	190296
#	202010
#	214695
#	228077
#	238049
#
# Disc length: 3341 seconds
#
# Revision: 0
# Processed by: cddbd v1.5.2PL0 Copyright (c) Steve Scherf et al.
# Submitted via: CDex 2.14
#
DISCID=140d0b14
DTITLE=Various Artist - Legends Of Country Vol 2
DYEAR=2018
DGENRE=Country
TTITLE0=Johnny Cash - Walk The Line
TTITLE1=Sammi Smith - Help Me Make It Through The Night
TTITLE2=Dave Dudley - Six Days On The Road
TTITLE3=Gogi Grant - The Wayward Wind
TTITLE4=Don Gibson - Touch The Morning
TTITLE5=Red Sovine - Teddy Bear
TTITLE6=The Everly Brothers - Wake Up Little Susie
TTITLE7=Ned Miller - From A Jack To A King
TTITLE8=Jeannie C. Riley - Harper Valley PTA
TTITLE9=Jerry Lee Lewis - Cold Cold Heart
TTITLE10=Kenny Rogers - Ruby Don't Take Your Love To Town
TTITLE11=Willie Nelson - Both Ends Of The Candle
TTITLE12=Johnny Bond - Hot Rod Lincoln
TTITLE13=Crystal Gayle - Don't It Make My Brown Eyes Blue
TTITLE14=Charlie Rich - There Won't Be Anymore
TTITLE15=Patsy Cline - Walkin' After Midnight
TTITLE16=Johnny Tillotson - It Keeps Right On A Hurtin
TTITLE17=Mark Charron - Mama
TTITLE18=Ray Stevens - Turn Your Radio On
TTITLE19=Carl Perkins - Boppin' The Blues
EXTD=YEAR: 2018
EXTT0=
EXTT1=
EXTT2=
EXTT3=
EXTT4=
EXTT5=
EXTT6=
EXTT7=
EXTT8=
EXTT9=
EXTT10=
EXTT11=
EXTT12=
EXTT13=
EXTT14=
EXTT15=
EXTT16=
EXTT17=
EXTT18=
EXTT19=
PLAYORDER=
